# xmcd
#
# Track frame offsets:
#	150
#	21226
#	28931
#	45507
#	60943
#	86832
#	105353
#	121293
#	138037
#	154889
#	171494
#	192157
#	203646
#	214741
#	236008
#	250285
#
# Disc length: 3534 seconds
#
# Revision: 0
# Processed by: cddbd v1.5.2PL0 Copyright (c) Steve Scherf et al.
# Submitted via: audiograbber 1.83.01
#
DISCID=d70dcc10
DTITLE=акйимоос иыаммидгс - сумамтгсг [CD 2)
DYEAR=2006
DGENRE=емтевмо
TTITLE0=SAVED (ле том дыяо дглосхемоус йаи тгм сабима циамматоу)
TTITLE1=тгс лийягс йкымтим т' алпеки (ле том дыяо дглосхемоус)
TTITLE2=ока сто жыс - екеухеяиа аябамитайг
TTITLE3=йоита - йоита
TTITLE4=о дейелбягс тоу 1903
TTITLE5=идаиои дайтукои
TTITLE6=сам та йояитсиа поу цекам
TTITLE7=ехекомтес
TTITLE8=тоу еяыта сглади - екемг тсакицопоукоу
TTITLE9=г текеиа паяенгцгсг
TTITLE10=то лпкоуф тоу аповыяислоу
TTITLE11=ои пакиои лас жикои
TTITLE12=стом йаимоуяцио оуяамо - сожиа папафоцкоу
TTITLE13=паяе ле ст' омеияо (ле тгм екемг тсакицопоукоу)
TTITLE14=жымес йяоустым
TTITLE15=сумамтгсг
EXTD=
EXTT0=
EXTT1=
EXTT2=
EXTT3=
EXTT4=
EXTT5=
EXTT6=
EXTT7=
EXTT8=
EXTT9=
EXTT10=
EXTT11=
EXTT12=
EXTT13=
EXTT14=
EXTT15=
PLAYORDER=
